<svg width="51" height="50" viewBox="0 0 51 50" fill="none" xmlns="http://www.w3.org/2000/svg">
<path opacity="0.6" d="M0.666748 25C0.666748 7.00021 7.66695 0 25.6667 0C43.6665 0 50.6667 7.00021 50.6667 25C50.6667 42.9998 43.6665 50 25.6667 50C7.66695 50 0.666748 42.9998 0.666748 25Z" fill="#F0D9FD"/>
<path d="M37.3341 16.667H24.0501C23.5581 16.667 23.0895 16.9481 22.9372 17.405C22.6327 18.3421 21.7541 19.0098 20.7115 19.0098C19.669 19.0098 18.8021 18.3421 18.4858 17.405C18.3335 16.9364 17.8533 16.667 17.3613 16.667H13.9993C12.9684 16.667 12.125 17.5104 12.125 18.5413V32.2469C12.125 33.2778 12.9684 34.1212 13.9993 34.1212H17.373C17.865 34.1212 18.3335 33.8401 18.4858 33.3832C18.8021 32.4578 19.6807 31.7784 20.7115 31.7784C21.7424 31.7784 22.6327 32.4578 22.9372 33.3832C23.0895 33.8401 23.5698 34.1212 24.0501 34.1212H37.3341C38.3649 34.1212 39.2083 33.2778 39.2083 32.2469V18.5413C39.2083 17.5104 38.3649 16.667 37.3341 16.667ZM20.6295 29.0255C19.9853 29.0255 19.4581 28.4984 19.4581 27.8541C19.4581 27.2098 19.9853 26.6827 20.6295 26.6827C21.2738 26.6827 21.801 27.2098 21.801 27.8541C21.801 28.4984 21.2738 29.0255 20.6295 29.0255ZM20.6295 24.1172C19.9853 24.1172 19.4581 23.5901 19.4581 22.9458C19.4581 22.3015 19.9853 21.7744 20.6295 21.7744C21.2738 21.7744 21.801 22.3015 21.801 22.9458C21.801 23.5901 21.2738 24.1172 20.6295 24.1172Z" fill="#8E43E7"/>
</svg>
