<svg width="20" height="13" viewBox="0 0 20 13" fill="none" xmlns="http://www.w3.org/2000/svg">
<path d="M20 4.8382H17.2341V0H13.769L10.3814 3.95558L6.99641 0H3.53193V1.25698L2.65935 0H0V7.16751L8.2271 11.8712C8.84371 12.2697 9.58136 12.5 10.3821 12.5C11.1828 12.5 11.9286 12.2678 12.5478 11.8648L20 7.15482V4.8382Z" fill="black"/>
<path d="M0.444336 0.447998H2.47699L3.95862 2.60726H3.97627V0.447998H6.81909V6.95942H4.66475L3.30418 4.94736H3.28653V6.90739H0.444336V0.447998Z" fill="#FFFF33"/>
<path d="M13.946 0.448059H16.7889V5.28562H19.5548V6.90745H13.946V0.448059Z" fill="#FFFF33"/>
<path d="M10.3827 12.026C8.42506 12.026 6.89111 10.4702 6.89111 8.48414C6.89111 6.4981 8.42443 4.95178 10.3827 4.95178C12.341 4.95178 13.8749 6.50318 13.8749 8.48414C13.8749 10.4651 12.341 12.026 10.3827 12.026Z" fill="#FFFF33"/>
<path d="M10.3826 9.65291C9.98668 9.65291 9.70044 9.16116 9.70044 8.48857C9.70044 7.81598 9.98605 7.3255 10.3826 7.3255C10.7792 7.3255 11.0648 7.81725 11.0648 8.48857C11.0648 9.15989 10.7792 9.65291 10.3826 9.65291Z" fill="#333333"/>
</svg>
