<svg width="51" height="50" viewBox="0 0 51 50" fill="none" xmlns="http://www.w3.org/2000/svg">
<path opacity="0.6" d="M0.666748 25C0.666748 7.00021 7.66695 0 25.6667 0C43.6665 0 50.6667 7.00021 50.6667 25C50.6667 42.9998 43.6665 50 25.6667 50C7.66695 50 0.666748 42.9998 0.666748 25Z" fill="#D0E7FF"/>
<path d="M34.3164 17.3162H31.2296V15.0365C31.2296 13.7276 30.1606 12.6587 28.8517 12.6587H22.4708C21.1619 12.6587 20.093 13.7276 20.093 15.0365V17.3162H17.0062C14.8901 17.3162 13.1667 19.0396 13.1667 21.1665V32.0086C13.1667 34.1356 14.8901 35.859 17.0171 35.859H34.3164C36.4434 35.859 38.1667 34.1356 38.1667 32.0086V21.1665C38.1667 19.0396 36.4434 17.3162 34.3164 17.3162ZM21.8382 32.1395C21.8382 32.6194 21.4455 33.0121 20.9656 33.0121C20.4857 33.0121 20.093 32.6194 20.093 32.1395V21.0247C20.093 20.5448 20.4857 20.1521 20.9656 20.1521C21.4455 20.1521 21.8382 20.5448 21.8382 21.0247V32.1395ZM29.4844 17.3162H21.8382V15.0365C21.8382 14.6875 22.1218 14.4039 22.4708 14.4039H28.8517C29.2008 14.4039 29.4844 14.6875 29.4844 15.0365V17.3162ZM31.2296 32.1395C31.2296 32.6194 30.8369 33.0121 30.357 33.0121C29.877 33.0121 29.4844 32.6194 29.4844 32.1395V21.0247C29.4844 20.5448 29.877 20.1521 30.357 20.1521C30.8369 20.1521 31.2296 20.5448 31.2296 21.0247V32.1395Z" fill="#1769FF"/>
</svg>
