<svg width="51" height="50" viewBox="0 0 51 50" fill="none" xmlns="http://www.w3.org/2000/svg">
<path opacity="0.6" d="M0.333252 25C0.333252 7.00021 7.33346 0 25.3333 0C43.333 0 50.3333 7.00021 50.3333 25C50.3333 42.9998 43.333 50 25.3333 50C7.33346 50 0.333252 42.9998 0.333252 25Z" fill="#FFE7B8"/>
<path d="M36.5289 15.0547L26.2588 17.8025C25.9865 17.8797 25.7027 17.8797 25.4304 17.8025L15.1603 15.0547C14.2525 14.8119 13.3333 15.4078 13.3333 16.2465V33.7707C13.3333 34.3224 13.7418 34.808 14.3319 34.9625L25.419 37.9421C25.6914 38.0193 25.9751 38.0193 26.2475 37.9421L37.3346 34.9625C37.9247 34.808 38.3333 34.3224 38.3333 33.7707V16.2465C38.3333 15.4078 37.4141 14.8119 36.5062 15.0547H36.5289ZM35.6437 30.7691L27.9383 32.943C27.8702 32.9651 27.8135 32.9651 27.7454 32.9651C27.4504 32.9651 27.178 32.7775 27.0872 32.4906C26.9851 32.1374 27.1894 31.7733 27.5525 31.6629L35.2579 29.489C35.621 29.3896 35.9955 29.5883 36.109 29.9414C36.2111 30.2945 36.0069 30.6587 35.6437 30.7691ZM35.6664 25.7811L27.961 27.955C27.8929 27.9771 27.8362 27.9771 27.7681 27.9771C27.4731 27.9771 27.2007 27.7895 27.1099 27.5026C27.0078 27.1495 27.2121 26.7853 27.5752 26.6749L35.2806 24.501C35.6437 24.4016 36.0182 24.6003 36.1317 24.9534C36.2338 25.3065 36.0296 25.6707 35.6664 25.7811ZM35.6664 20.8482L27.961 23.0222C27.8929 23.0443 27.8362 23.0443 27.7681 23.0443C27.4731 23.0443 27.2007 22.8567 27.1099 22.5698C27.0078 22.2166 27.2121 21.8525 27.5752 21.7421L35.2806 19.5681C35.6437 19.4688 36.0182 19.6675 36.1317 20.0206C36.2338 20.3737 36.0296 20.7379 35.6664 20.8482Z" fill="#FF7800"/>
</svg>
