<svg width="16" height="16" viewBox="0 0 16 16" fill="none" xmlns="http://www.w3.org/2000/svg">
<ellipse cx="8" cy="7.99998" rx="6.5" ry="6.49998" fill="#3BC2F7"/>
<g clip-path="url(#clip0_1081_33850)">
<path d="M8.96631 5.35567C9.01066 5.27083 9.09765 5.2072 9.2307 5.16655C9.33646 5.13474 9.46439 5.11176 9.61791 5.09408C9.76972 5.07641 9.89765 5.06403 10 5.05343V4.68932C7.5113 4.26335 6 4.68932 6 4.68932V5.0552C6.11599 5.06757 6.25245 5.09055 6.41109 5.12236C6.56972 5.15418 6.69083 5.18599 6.77271 5.21781C6.90064 5.2673 6.98763 5.3327 7.03198 5.414C7.07633 5.49531 7.09851 5.58899 7.09851 5.69327V10.3878C7.09851 10.5062 7.07633 10.6034 7.03028 10.6794C6.98422 10.7554 6.89893 10.8173 6.77271 10.8633C6.70448 10.888 6.58166 10.9074 6.40426 10.9198C6.22687 10.9322 6.09211 10.941 6 10.9481V11.3122H6.00853C8.44606 11.7276 9.9403 11.3264 9.99147 11.3122H9.99659V10.9463C9.88401 10.941 9.74584 10.9234 9.58209 10.8968C9.41834 10.8703 9.29893 10.8438 9.229 10.8155C9.09936 10.766 9.01237 10.7006 8.96802 10.6211C8.92196 10.5416 8.89979 10.4461 8.89979 10.3348V5.64732C8.89979 5.53773 8.92196 5.44052 8.96631 5.35567Z" fill="white"/>
</g>
<defs>
<clipPath id="clip0_1081_33850">
<rect width="4" height="7" fill="white" transform="translate(6 4.5)"/>
</clipPath>
</defs>
</svg>
