<svg width="51" height="50" viewBox="0 0 51 50" fill="none" xmlns="http://www.w3.org/2000/svg">
<path opacity="0.6" d="M0.333252 25C0.333252 7.00021 7.33346 0 25.3333 0C43.333 0 50.3333 7.00021 50.3333 25C50.3333 42.9998 43.333 50 25.3333 50C7.33346 50 0.333252 42.9998 0.333252 25Z" fill="#FFE4D5"/>
<path d="M35.8805 18.9054H31.0576V17.3362C31.0576 13.8412 28.2665 11 24.8333 11C21.4 11 18.609 13.8412 18.609 17.3362V18.9054H13.786C12.2212 18.9054 11.0534 20.3795 11.392 21.9368L14.0079 34.0385C14.2531 35.1798 15.2457 36 16.4018 36H33.2647C34.4091 36 35.4134 35.1798 35.6586 34.0385L38.2745 21.9368C38.6131 20.3795 37.4453 18.9054 35.8805 18.9054ZM19.5432 22.9948C19.0294 22.9948 18.609 22.5668 18.609 22.0437C18.609 21.5207 19.0294 21.0927 19.5432 21.0927C20.057 21.0927 20.4774 21.5207 20.4774 22.0437C20.4774 22.5668 20.057 22.9948 19.5432 22.9948ZM20.4774 17.3362C20.4774 14.8873 22.4393 12.902 24.8333 12.902C27.2272 12.902 29.1891 14.8992 29.1891 17.3362V18.9054H20.4657V17.3362H20.4774ZM30.135 22.9948C29.6212 22.9948 29.2008 22.5668 29.2008 22.0437C29.2008 21.5207 29.6212 21.0927 30.135 21.0927C30.6488 21.0927 31.0692 21.5207 31.0692 22.0437C31.0692 22.5668 30.6488 22.9948 30.135 22.9948Z" fill="#FF322E"/>
</svg>
